<svg width="187" height="187" viewBox="0 0 187 187" fill="none" xmlns="http://www.w3.org/2000/svg">
<g clip-path="url(#clip0_4053_20006)">
<g clip-path="url(#clip1_4053_20006)">
<rect width="186.676" height="186.676" fill="#292929"/>
<path d="M26.3324 88.9065H30.9359L30.5676 91.2634C31.206 90.5269 31.9794 89.9376 32.8878 89.4957C33.8208 89.0538 34.7537 88.8328 35.6867 88.8328H38.2279L37.4545 93.1785H34.9502C33.6489 93.1785 32.5195 93.5713 31.562 94.357C30.629 95.1427 30.052 96.1493 29.8311 97.3769L28.1001 107.284H23.0915L26.3324 88.9065ZM44.2377 107.578C41.979 107.578 40.1989 107.075 38.8977 106.068C37.5964 105.037 36.9458 103.662 36.9458 101.944C36.9458 101.551 36.9826 101.133 37.0563 100.691L37.9033 95.9406C38.3207 93.6327 39.2905 91.8404 40.8127 90.5637C42.3595 89.2625 44.2991 88.6118 46.6316 88.6118H49.5778C51.7629 88.6118 53.4816 89.1642 54.7337 90.2691C56.0104 91.3494 56.6488 92.7734 56.6488 94.5411C56.6488 94.9831 56.612 95.425 56.5383 95.867L55.8386 99.8076H42.2122L42.0649 100.691C42.0403 100.814 42.0281 100.986 42.0281 101.207C42.0281 101.87 42.2367 102.398 42.6541 102.791C43.0961 103.183 43.6976 103.38 44.4587 103.38H47.3313C48.2397 103.38 48.9763 103.196 49.541 102.827C50.1302 102.459 50.474 101.956 50.5722 101.318H55.5071C55.1634 103.282 54.255 104.816 52.7819 105.921C51.3087 107.026 49.4428 107.578 47.184 107.578H44.2377ZM51.5665 96.1984L51.6034 95.9774C51.6525 95.6337 51.677 95.3759 51.677 95.2041C51.677 94.4429 51.4683 93.8414 51.0509 93.3995C50.6581 92.9575 50.0934 92.7366 49.3568 92.7366H46.3369C45.4776 92.7366 44.7165 93.0435 44.0536 93.6573C43.4152 94.2465 42.9979 95.0322 42.8014 96.0143L42.7646 96.1984H51.5665ZM65.4921 107.578C63.307 107.578 61.5638 107.038 60.2626 105.958C58.9613 104.853 58.3107 103.392 58.3107 101.575C58.3107 101.158 58.3475 100.716 58.4212 100.249L59.1945 95.9406C59.5874 93.6327 60.5449 91.8404 62.0671 90.5637C63.5894 89.2625 65.4921 88.6118 67.7755 88.6118H70.6849C72.7964 88.6118 74.4536 89.1274 75.6567 90.1586C76.8843 91.1898 77.4981 92.5893 77.4981 94.357C77.4981 94.7498 77.4613 95.1918 77.3876 95.6828H72.4158C72.4649 95.3882 72.4895 95.1672 72.4895 95.0199C72.4895 94.3816 72.3053 93.8782 71.9371 93.51C71.5688 93.1171 71.0655 92.9207 70.4271 92.9207H67.5913C66.6829 92.9207 65.9218 93.2153 65.308 93.8046C64.7188 94.3938 64.3259 95.2286 64.1295 96.3089L63.5034 99.8812C63.4543 100.274 63.4298 100.556 63.4298 100.728C63.4298 101.514 63.6385 102.14 64.0558 102.606C64.4978 103.048 65.087 103.269 65.8236 103.269H68.6594C69.4941 103.269 70.1816 102.999 70.7217 102.459C71.2864 101.919 71.6424 101.158 71.7897 100.176H76.7615C76.3687 102.484 75.4357 104.301 73.9626 105.626C72.514 106.928 70.6972 107.578 68.512 107.578H65.4921ZM86.1 107.578C83.9395 107.578 82.1963 107.038 80.8704 105.958C79.5692 104.853 78.9186 103.404 78.9186 101.612C78.9186 101.17 78.9554 100.728 79.029 100.286L79.8024 95.9774C80.2198 93.6695 81.1896 91.865 82.7119 90.5637C84.2341 89.2625 86.1491 88.6118 88.457 88.6118H91.7347C93.969 88.6118 95.7367 89.152 97.038 90.2323C98.3392 91.288 98.9899 92.7243 98.9899 94.5411C98.9899 94.8112 98.9408 95.29 98.8426 95.9774L98.0692 100.286C97.6518 102.594 96.6942 104.387 95.1966 105.663C93.6989 106.94 91.7593 107.578 89.3777 107.578H86.1ZM89.5619 103.269C90.4949 103.269 91.2805 102.975 91.9189 102.386C92.5572 101.772 92.9623 100.937 93.1342 99.8812L93.7603 96.3089C93.8094 95.9161 93.8339 95.646 93.8339 95.4987C93.8339 94.713 93.613 94.0869 93.171 93.6204C92.7536 93.154 92.1644 92.9207 91.4033 92.9207H88.2729C87.3399 92.9207 86.5542 93.2276 85.9159 93.8414C85.3021 94.4307 84.9093 95.2532 84.7374 96.3089L84.1113 99.8812C84.0622 100.274 84.0377 100.556 84.0377 100.728C84.0377 101.514 84.2464 102.14 84.6637 102.606C85.1057 103.048 85.6949 103.269 86.4315 103.269H89.5619ZM103.621 88.9065H108.224L107.856 91.2634C108.495 90.5269 109.268 89.9376 110.176 89.4957C111.109 89.0538 112.042 88.8328 112.975 88.8328H115.516L114.743 93.1785H112.239C110.937 93.1785 109.808 93.5713 108.851 94.357C107.918 95.1427 107.341 96.1493 107.12 97.3769L105.389 107.284H100.38L103.621 88.9065ZM120.753 107.578C118.789 107.578 117.205 107.063 116.002 106.032C114.824 104.976 114.234 103.564 114.234 101.796C114.234 101.477 114.283 100.998 114.382 100.36L115.118 96.1616C115.536 93.78 116.493 91.9264 117.991 90.6005C119.489 89.2747 121.367 88.6118 123.626 88.6118H125.614C126.474 88.6118 127.272 88.7591 128.008 89.0538C128.745 89.3484 129.346 89.7658 129.813 90.3059L131.396 81.504H136.405L131.838 107.284H127.198L127.603 104.853C126.965 105.712 126.228 106.388 125.393 106.879C124.583 107.345 123.748 107.578 122.889 107.578H120.753ZM123.847 103.269C124.829 103.269 125.725 102.901 126.535 102.165C127.345 101.428 127.91 100.47 128.229 99.292L128.818 96.0879C128.818 95.1304 128.573 94.3693 128.082 93.8046C127.615 93.2153 126.989 92.9207 126.203 92.9207H123.994C122.963 92.9207 122.103 93.2399 121.416 93.8782C120.728 94.5166 120.286 95.4005 120.09 96.5299L119.464 99.9917C119.415 100.385 119.39 100.655 119.39 100.802C119.39 101.563 119.599 102.165 120.016 102.606C120.458 103.048 121.048 103.269 121.784 103.269H123.847ZM142.39 107.578C140.524 107.578 139.051 107.185 137.971 106.4C136.89 105.614 136.35 104.558 136.35 103.233C136.35 103.036 136.375 102.742 136.424 102.349L136.682 100.912C136.976 99.3165 137.737 98.0766 138.965 97.1928C140.217 96.2843 141.813 95.8301 143.753 95.8301H145.962C146.674 95.8301 147.435 95.9161 148.246 96.0879C149.08 96.2598 149.805 96.493 150.419 96.7877L150.75 94.8726C150.775 94.7744 150.787 94.6271 150.787 94.4307C150.787 93.9396 150.615 93.5468 150.271 93.2522C149.952 92.9575 149.498 92.8102 148.909 92.8102H145.778C145.066 92.8102 144.477 92.9698 144.01 93.289C143.544 93.6082 143.262 94.0378 143.163 94.578H138.302C138.646 92.6875 139.493 91.2266 140.843 90.1954C142.194 89.1397 143.912 88.6118 145.999 88.6118H149.13C151.192 88.6118 152.825 89.0783 154.028 90.0113C155.255 90.9443 155.869 92.1964 155.869 93.7678C155.869 94.136 155.832 94.5043 155.759 94.8726L153.549 107.284H148.909L149.314 105.074C148.553 105.86 147.742 106.473 146.883 106.915C146.048 107.357 145.263 107.578 144.526 107.578H142.39ZM145.189 103.748C146.073 103.748 146.92 103.515 147.73 103.048C148.54 102.582 149.179 101.956 149.645 101.17L149.756 100.544C149.436 100.249 148.933 100.016 148.246 99.8444C147.558 99.6725 146.822 99.5866 146.036 99.5866H143.753C143.139 99.5866 142.636 99.7339 142.243 100.029C141.85 100.299 141.604 100.691 141.506 101.207L141.322 102.165C141.224 102.631 141.347 103.012 141.69 103.306C142.059 103.601 142.574 103.748 143.237 103.748H145.189ZM159.883 107.652C159.122 107.652 158.508 107.431 158.041 106.989C157.575 106.547 157.342 105.97 157.342 105.258C157.342 104.178 157.661 103.306 158.299 102.643C158.962 101.956 159.834 101.612 160.914 101.612C161.675 101.612 162.289 101.833 162.755 102.275C163.222 102.717 163.455 103.294 163.455 104.006C163.455 105.086 163.124 105.97 162.461 106.658C161.822 107.32 160.963 107.652 159.883 107.652Z" fill="#00E2A9"/>
</g>
</g>
<rect x="0.3955" y="0.3955" width="185.885" height="185.885" rx="40.7365" stroke="black" stroke-opacity="0.16" stroke-width="0.790999"/>
<defs>
<clipPath id="clip0_4053_20006">
<rect width="186.676" height="186.676" rx="41.132" fill="white"/>
</clipPath>
<clipPath id="clip1_4053_20006">
<rect width="186.676" height="186.676" fill="white"/>
</clipPath>
</defs>
</svg>
